<mxfile host="Electron" modified="2023-12-23T19:15:54.395Z" agent="Mozilla/5.0 (Windows NT 10.0; Win64; x64) AppleWebKit/537.36 (KHTML, like Gecko) draw.io/22.1.11 Chrome/114.0.5735.289 Electron/25.9.8 Safari/537.36" etag="N39YCQ4kg56niYvph7OE" version="22.1.11" type="device">
  <diagram name="Page-1" id="ezzxBG4QileY5Rs_C8bC">
    <mxGraphModel dx="2578" dy="2660" grid="1" gridSize="10" guides="1" tooltips="1" connect="1" arrows="1" fold="1" page="1" pageScale="1" pageWidth="827" pageHeight="1169" math="0" shadow="0">
      <root>
        <mxCell id="0" />
        <mxCell id="1" parent="0" />
        <mxCell id="lpmMd5Od-dHpLneBfilf-33" value="&lt;span style=&quot;font-size: 12px;&quot;&gt;&lt;sub style=&quot;font-size: 12px;&quot;&gt;Encoder&lt;/sub&gt;&lt;/span&gt;" style="rounded=0;whiteSpace=wrap;html=1;verticalAlign=bottom;fontSize=12;fillColor=none;strokeColor=#000000;fontStyle=1;dashed=1;fontColor=#000000;fontFamily=LM Mono 12;" parent="1" vertex="1">
          <mxGeometry x="50" y="102" width="220" height="483" as="geometry" />
        </mxCell>
        <mxCell id="lpmMd5Od-dHpLneBfilf-9" value="" style="edgeStyle=orthogonalEdgeStyle;rounded=0;orthogonalLoop=1;jettySize=auto;html=1;strokeColor=#000000;fontColor=#000000;fontFamily=LM Mono 12;fontSize=11;" parent="1" source="lpmMd5Od-dHpLneBfilf-1" target="lpmMd5Od-dHpLneBfilf-4" edge="1">
          <mxGeometry relative="1" as="geometry" />
        </mxCell>
        <mxCell id="lpmMd5Od-dHpLneBfilf-1" value="Embeddings" style="rounded=1;whiteSpace=wrap;html=1;fillColor=#E6FFCC;strokeColor=#000000;fontColor=#000000;fontFamily=LM Mono 12;fontSize=11;" parent="1" vertex="1">
          <mxGeometry x="120" y="420" width="120" height="30" as="geometry" />
        </mxCell>
        <mxCell id="lpmMd5Od-dHpLneBfilf-38" value="" style="edgeStyle=orthogonalEdgeStyle;rounded=0;orthogonalLoop=1;jettySize=auto;html=1;strokeColor=#000000;fontColor=#000000;fontFamily=LM Mono 12;fontSize=11;" parent="1" source="lpmMd5Od-dHpLneBfilf-2" target="lpmMd5Od-dHpLneBfilf-37" edge="1">
          <mxGeometry relative="1" as="geometry" />
        </mxCell>
        <mxCell id="lpmMd5Od-dHpLneBfilf-2" value="Inputs" style="text;html=1;strokeColor=none;fillColor=none;align=center;verticalAlign=middle;whiteSpace=wrap;rounded=0;fontColor=#000000;fontFamily=LM Mono 12;fontSize=11;" parent="1" vertex="1">
          <mxGeometry x="150" y="520" width="60" height="30" as="geometry" />
        </mxCell>
        <mxCell id="lpmMd5Od-dHpLneBfilf-11" value="" style="edgeStyle=orthogonalEdgeStyle;rounded=0;orthogonalLoop=1;jettySize=auto;html=1;strokeColor=#000000;fontColor=#000000;fontFamily=LM Mono 12;fontSize=11;" parent="1" source="lpmMd5Od-dHpLneBfilf-4" target="lpmMd5Od-dHpLneBfilf-10" edge="1">
          <mxGeometry relative="1" as="geometry">
            <Array as="points">
              <mxPoint x="180" y="360" />
              <mxPoint x="180" y="360" />
            </Array>
          </mxGeometry>
        </mxCell>
        <mxCell id="lpmMd5Od-dHpLneBfilf-4" value="" style="shape=orEllipse;perimeter=ellipsePerimeter;whiteSpace=wrap;html=1;backgroundOutline=1;strokeColor=#000000;fillColor=none;fontColor=#000000;fontFamily=LM Mono 12;fontSize=11;" parent="1" vertex="1">
          <mxGeometry x="170" y="380" width="20" height="20" as="geometry" />
        </mxCell>
        <mxCell id="lpmMd5Od-dHpLneBfilf-8" value="" style="edgeStyle=orthogonalEdgeStyle;rounded=0;orthogonalLoop=1;jettySize=auto;html=1;strokeColor=#000000;fontColor=#000000;fontFamily=LM Mono 12;fontSize=11;" parent="1" source="lpmMd5Od-dHpLneBfilf-7" target="lpmMd5Od-dHpLneBfilf-4" edge="1">
          <mxGeometry relative="1" as="geometry" />
        </mxCell>
        <mxCell id="lpmMd5Od-dHpLneBfilf-7" value="Positional Encoding" style="text;html=1;strokeColor=none;fillColor=none;align=center;verticalAlign=middle;whiteSpace=wrap;rounded=0;fontColor=#000000;fontFamily=LM Mono 12;fontSize=11;" parent="1" vertex="1">
          <mxGeometry x="60" y="375" width="60" height="30" as="geometry" />
        </mxCell>
        <mxCell id="lpmMd5Od-dHpLneBfilf-34" style="edgeStyle=orthogonalEdgeStyle;rounded=0;orthogonalLoop=1;jettySize=auto;html=1;exitX=0.5;exitY=0;exitDx=0;exitDy=0;entryX=0.5;entryY=0;entryDx=0;entryDy=0;strokeColor=#000000;fontColor=#000000;fontFamily=LM Mono 12;fontSize=11;" parent="1" source="lpmMd5Od-dHpLneBfilf-10" target="lpmMd5Od-dHpLneBfilf-33" edge="1">
          <mxGeometry relative="1" as="geometry" />
        </mxCell>
        <mxCell id="lpmMd5Od-dHpLneBfilf-10" value="" style="rounded=1;whiteSpace=wrap;html=1;fillColor=none;strokeColor=#000000;fontColor=#000000;fontFamily=LM Mono 12;fontSize=11;" parent="1" vertex="1">
          <mxGeometry x="110" y="120" width="120" height="230" as="geometry" />
        </mxCell>
        <mxCell id="lpmMd5Od-dHpLneBfilf-12" value="Multi-Head Attention" style="rounded=1;whiteSpace=wrap;html=1;fillColor=#CCE5FF;strokeColor=#000000;fontColor=#000000;fontFamily=LM Mono 12;fontSize=11;" parent="1" vertex="1">
          <mxGeometry x="140" y="280" width="80" height="40" as="geometry" />
        </mxCell>
        <mxCell id="lpmMd5Od-dHpLneBfilf-13" style="edgeStyle=orthogonalEdgeStyle;rounded=0;orthogonalLoop=1;jettySize=auto;html=1;exitX=0.5;exitY=1;exitDx=0;exitDy=0;strokeColor=#000000;fontColor=#000000;fontFamily=LM Mono 12;fontSize=11;" parent="1" source="lpmMd5Od-dHpLneBfilf-10" target="lpmMd5Od-dHpLneBfilf-10" edge="1">
          <mxGeometry relative="1" as="geometry" />
        </mxCell>
        <mxCell id="lpmMd5Od-dHpLneBfilf-15" value="" style="endArrow=classic;html=1;rounded=0;entryX=0.5;entryY=1;entryDx=0;entryDy=0;strokeColor=#000000;fontColor=#000000;fontFamily=LM Mono 12;fontSize=11;" parent="1" target="lpmMd5Od-dHpLneBfilf-12" edge="1">
          <mxGeometry width="50" height="50" relative="1" as="geometry">
            <mxPoint x="180" y="350" as="sourcePoint" />
            <mxPoint x="200" y="310" as="targetPoint" />
            <Array as="points">
              <mxPoint x="180" y="340" />
            </Array>
          </mxGeometry>
        </mxCell>
        <mxCell id="lpmMd5Od-dHpLneBfilf-16" value="" style="endArrow=classic;html=1;rounded=0;entryX=0.75;entryY=1;entryDx=0;entryDy=0;exitX=0.584;exitY=1.009;exitDx=0;exitDy=0;exitPerimeter=0;strokeColor=#000000;fontColor=#000000;fontFamily=LM Mono 12;fontSize=11;" parent="1" source="lpmMd5Od-dHpLneBfilf-10" target="lpmMd5Od-dHpLneBfilf-12" edge="1">
          <mxGeometry width="50" height="50" relative="1" as="geometry">
            <mxPoint x="140" y="350" as="sourcePoint" />
            <mxPoint x="190" y="300" as="targetPoint" />
            <Array as="points">
              <mxPoint x="180" y="340" />
              <mxPoint x="200" y="340" />
            </Array>
          </mxGeometry>
        </mxCell>
        <mxCell id="lpmMd5Od-dHpLneBfilf-17" value="" style="endArrow=classic;html=1;rounded=0;exitX=0.58;exitY=1.001;exitDx=0;exitDy=0;exitPerimeter=0;entryX=0.25;entryY=1;entryDx=0;entryDy=0;strokeColor=#000000;fontColor=#000000;fontFamily=LM Mono 12;fontSize=11;" parent="1" source="lpmMd5Od-dHpLneBfilf-10" target="lpmMd5Od-dHpLneBfilf-12" edge="1">
          <mxGeometry width="50" height="50" relative="1" as="geometry">
            <mxPoint x="140" y="340" as="sourcePoint" />
            <mxPoint x="190" y="290" as="targetPoint" />
            <Array as="points">
              <mxPoint x="180" y="340" />
              <mxPoint x="160" y="340" />
            </Array>
          </mxGeometry>
        </mxCell>
        <mxCell id="lpmMd5Od-dHpLneBfilf-26" value="" style="edgeStyle=orthogonalEdgeStyle;rounded=0;orthogonalLoop=1;jettySize=auto;html=1;strokeColor=#000000;fontColor=#000000;fontFamily=LM Mono 12;fontSize=11;" parent="1" source="lpmMd5Od-dHpLneBfilf-22" target="lpmMd5Od-dHpLneBfilf-25" edge="1">
          <mxGeometry relative="1" as="geometry" />
        </mxCell>
        <mxCell id="lpmMd5Od-dHpLneBfilf-30" style="edgeStyle=orthogonalEdgeStyle;rounded=0;orthogonalLoop=1;jettySize=auto;html=1;exitX=0.5;exitY=0;exitDx=0;exitDy=0;entryX=0;entryY=0.5;entryDx=0;entryDy=0;strokeColor=#000000;fontColor=#000000;fontFamily=LM Mono 12;fontSize=11;" parent="1" source="lpmMd5Od-dHpLneBfilf-22" target="lpmMd5Od-dHpLneBfilf-28" edge="1">
          <mxGeometry relative="1" as="geometry">
            <Array as="points">
              <mxPoint x="180" y="230" />
              <mxPoint x="120" y="230" />
              <mxPoint x="120" y="155" />
            </Array>
          </mxGeometry>
        </mxCell>
        <mxCell id="lpmMd5Od-dHpLneBfilf-22" value="Add and Normalize" style="rounded=1;whiteSpace=wrap;html=1;fillColor=#FFCCCC;strokeColor=#000000;fontColor=#000000;fontFamily=LM Mono 12;fontSize=11;" parent="1" vertex="1">
          <mxGeometry x="140" y="240" width="80" height="30" as="geometry" />
        </mxCell>
        <mxCell id="lpmMd5Od-dHpLneBfilf-23" value="" style="endArrow=none;html=1;rounded=0;exitX=0.5;exitY=0;exitDx=0;exitDy=0;entryX=0.5;entryY=1;entryDx=0;entryDy=0;strokeColor=#000000;fontColor=#000000;fontFamily=LM Mono 12;fontSize=11;" parent="1" source="lpmMd5Od-dHpLneBfilf-12" target="lpmMd5Od-dHpLneBfilf-22" edge="1">
          <mxGeometry width="50" height="50" relative="1" as="geometry">
            <mxPoint x="150" y="310" as="sourcePoint" />
            <mxPoint x="200" y="260" as="targetPoint" />
          </mxGeometry>
        </mxCell>
        <mxCell id="lpmMd5Od-dHpLneBfilf-24" value="" style="endArrow=classic;html=1;rounded=0;entryX=0;entryY=0.5;entryDx=0;entryDy=0;strokeColor=#000000;fontColor=#000000;fontFamily=LM Mono 12;fontSize=11;" parent="1" target="lpmMd5Od-dHpLneBfilf-22" edge="1">
          <mxGeometry width="50" height="50" relative="1" as="geometry">
            <mxPoint x="180" y="344" as="sourcePoint" />
            <mxPoint x="140.00000000000006" y="252.00000000000006" as="targetPoint" />
            <Array as="points">
              <mxPoint x="120" y="344" />
              <mxPoint x="120" y="297" />
              <mxPoint x="120" y="255" />
            </Array>
          </mxGeometry>
        </mxCell>
        <mxCell id="lpmMd5Od-dHpLneBfilf-25" value="Feed-Forward" style="rounded=1;whiteSpace=wrap;html=1;fillColor=#FFE6CC;strokeColor=#000000;fontColor=#000000;fontFamily=LM Mono 12;fontSize=11;" parent="1" vertex="1">
          <mxGeometry x="140" y="180" width="80" height="30" as="geometry" />
        </mxCell>
        <mxCell id="lpmMd5Od-dHpLneBfilf-32" style="edgeStyle=orthogonalEdgeStyle;rounded=0;orthogonalLoop=1;jettySize=auto;html=1;exitX=0.5;exitY=0;exitDx=0;exitDy=0;entryX=0.5;entryY=0;entryDx=0;entryDy=0;strokeColor=#000000;fontColor=#000000;fontFamily=LM Mono 12;fontSize=11;" parent="1" source="lpmMd5Od-dHpLneBfilf-28" target="lpmMd5Od-dHpLneBfilf-10" edge="1">
          <mxGeometry relative="1" as="geometry" />
        </mxCell>
        <mxCell id="lpmMd5Od-dHpLneBfilf-28" value="Add and Normalize" style="rounded=1;whiteSpace=wrap;html=1;fillColor=#FFCCCC;strokeColor=#000000;fontColor=#000000;fontFamily=LM Mono 12;fontSize=11;" parent="1" vertex="1">
          <mxGeometry x="140" y="140" width="80" height="30" as="geometry" />
        </mxCell>
        <mxCell id="lpmMd5Od-dHpLneBfilf-31" value="" style="endArrow=none;html=1;rounded=0;exitX=0.5;exitY=0;exitDx=0;exitDy=0;entryX=0.5;entryY=1;entryDx=0;entryDy=0;strokeColor=#000000;fontColor=#000000;fontFamily=LM Mono 12;fontSize=11;" parent="1" source="lpmMd5Od-dHpLneBfilf-25" target="lpmMd5Od-dHpLneBfilf-28" edge="1">
          <mxGeometry width="50" height="50" relative="1" as="geometry">
            <mxPoint x="180" y="240" as="sourcePoint" />
            <mxPoint x="230" y="190" as="targetPoint" />
          </mxGeometry>
        </mxCell>
        <mxCell id="lpmMd5Od-dHpLneBfilf-36" value="&lt;span style=&quot;font-size: 12px;&quot;&gt;&lt;sub style=&quot;font-size: 12px;&quot;&gt;Decoder&lt;/sub&gt;&lt;/span&gt;" style="rounded=0;whiteSpace=wrap;html=1;verticalAlign=bottom;fontSize=12;fillColor=none;strokeColor=#000000;fontStyle=1;dashed=1;fontColor=#000000;fontFamily=LM Mono 12;" parent="1" vertex="1">
          <mxGeometry x="320" y="-110" width="240" height="697.5" as="geometry" />
        </mxCell>
        <mxCell id="lpmMd5Od-dHpLneBfilf-41" style="edgeStyle=orthogonalEdgeStyle;rounded=0;orthogonalLoop=1;jettySize=auto;html=1;entryX=0.5;entryY=1;entryDx=0;entryDy=0;strokeColor=#000000;fontColor=#000000;fontFamily=LM Mono 12;fontSize=11;" parent="1" source="lpmMd5Od-dHpLneBfilf-37" target="lpmMd5Od-dHpLneBfilf-1" edge="1">
          <mxGeometry relative="1" as="geometry" />
        </mxCell>
        <mxCell id="lpmMd5Od-dHpLneBfilf-37" value="Tokenizer" style="rounded=1;whiteSpace=wrap;html=1;fillColor=#FFBDA1;strokeColor=#000000;fontColor=#000000;fontFamily=LM Mono 12;fontSize=11;" parent="1" vertex="1">
          <mxGeometry x="120" y="470" width="120" height="30" as="geometry" />
        </mxCell>
        <mxCell id="lpmMd5Od-dHpLneBfilf-45" value="" style="edgeStyle=orthogonalEdgeStyle;rounded=0;orthogonalLoop=1;jettySize=auto;html=1;strokeColor=#000000;fontColor=#000000;fontFamily=LM Mono 12;fontSize=11;" parent="1" source="lpmMd5Od-dHpLneBfilf-42" target="lpmMd5Od-dHpLneBfilf-44" edge="1">
          <mxGeometry relative="1" as="geometry" />
        </mxCell>
        <mxCell id="lpmMd5Od-dHpLneBfilf-42" value="Outputs (Shifted Right)" style="text;html=1;strokeColor=none;fillColor=none;align=center;verticalAlign=middle;whiteSpace=wrap;rounded=0;fontColor=#000000;fontFamily=LM Mono 12;fontSize=11;" parent="1" vertex="1">
          <mxGeometry x="420" y="520.5" width="120" height="30" as="geometry" />
        </mxCell>
        <mxCell id="lpmMd5Od-dHpLneBfilf-52" value="" style="edgeStyle=orthogonalEdgeStyle;rounded=0;orthogonalLoop=1;jettySize=auto;html=1;strokeColor=#000000;fontColor=#000000;fontFamily=LM Mono 12;fontSize=11;" parent="1" source="lpmMd5Od-dHpLneBfilf-43" target="lpmMd5Od-dHpLneBfilf-50" edge="1">
          <mxGeometry relative="1" as="geometry" />
        </mxCell>
        <mxCell id="lpmMd5Od-dHpLneBfilf-43" value="Embeddings" style="rounded=1;whiteSpace=wrap;html=1;fillColor=#E6FFCC;strokeColor=#000000;fontColor=#000000;fontFamily=LM Mono 12;fontSize=11;" parent="1" vertex="1">
          <mxGeometry x="420" y="420" width="120" height="30" as="geometry" />
        </mxCell>
        <mxCell id="lpmMd5Od-dHpLneBfilf-46" value="" style="edgeStyle=orthogonalEdgeStyle;rounded=0;orthogonalLoop=1;jettySize=auto;html=1;strokeColor=#000000;fontColor=#000000;fontFamily=LM Mono 12;fontSize=11;" parent="1" source="lpmMd5Od-dHpLneBfilf-44" target="lpmMd5Od-dHpLneBfilf-43" edge="1">
          <mxGeometry relative="1" as="geometry" />
        </mxCell>
        <mxCell id="lpmMd5Od-dHpLneBfilf-44" value="Tokenizer" style="rounded=1;whiteSpace=wrap;html=1;fillColor=#FFBDA1;fontColor=#000000;strokeColor=#000000;fontFamily=LM Mono 12;fontSize=11;" parent="1" vertex="1">
          <mxGeometry x="420" y="470" width="120" height="30" as="geometry" />
        </mxCell>
        <mxCell id="lpmMd5Od-dHpLneBfilf-56" value="" style="edgeStyle=orthogonalEdgeStyle;rounded=0;orthogonalLoop=1;jettySize=auto;html=1;entryX=0.5;entryY=1;entryDx=0;entryDy=0;exitX=0.5;exitY=0;exitDx=0;exitDy=0;strokeColor=#000000;fontColor=#000000;fontFamily=LM Mono 12;fontSize=11;" parent="1" source="lpmMd5Od-dHpLneBfilf-50" target="lpmMd5Od-dHpLneBfilf-54" edge="1">
          <mxGeometry relative="1" as="geometry">
            <Array as="points" />
          </mxGeometry>
        </mxCell>
        <mxCell id="lpmMd5Od-dHpLneBfilf-50" value="" style="shape=orEllipse;perimeter=ellipsePerimeter;whiteSpace=wrap;html=1;backgroundOutline=1;strokeColor=#000000;fillColor=none;fontColor=#000000;fontFamily=LM Mono 12;fontSize=11;" parent="1" vertex="1">
          <mxGeometry x="470" y="380" width="20" height="20" as="geometry" />
        </mxCell>
        <mxCell id="lpmMd5Od-dHpLneBfilf-53" value="" style="edgeStyle=orthogonalEdgeStyle;rounded=0;orthogonalLoop=1;jettySize=auto;html=1;strokeColor=#000000;fontColor=#000000;fontFamily=LM Mono 12;fontSize=11;" parent="1" source="lpmMd5Od-dHpLneBfilf-51" target="lpmMd5Od-dHpLneBfilf-50" edge="1">
          <mxGeometry relative="1" as="geometry" />
        </mxCell>
        <mxCell id="lpmMd5Od-dHpLneBfilf-51" value="Positional Encoding" style="text;html=1;strokeColor=none;fillColor=none;align=center;verticalAlign=middle;whiteSpace=wrap;rounded=0;fontColor=#000000;fontFamily=LM Mono 12;fontSize=11;" parent="1" vertex="1">
          <mxGeometry x="360" y="375" width="60" height="30" as="geometry" />
        </mxCell>
        <mxCell id="lpmMd5Od-dHpLneBfilf-54" value="" style="rounded=1;whiteSpace=wrap;html=1;strokeColor=#000000;fillColor=none;fontColor=#000000;fontFamily=LM Mono 12;fontSize=11;" parent="1" vertex="1">
          <mxGeometry x="420" y="10" width="120" height="342.5" as="geometry" />
        </mxCell>
        <mxCell id="lpmMd5Od-dHpLneBfilf-55" value="Masked Multi-Head Attention" style="rounded=1;whiteSpace=wrap;html=1;fillColor=#CCE5FF;strokeColor=#000000;fontColor=#000000;fontFamily=LM Mono 12;fontSize=11;" parent="1" vertex="1">
          <mxGeometry x="440" y="272.5" width="80" height="52" as="geometry" />
        </mxCell>
        <mxCell id="lpmMd5Od-dHpLneBfilf-70" style="edgeStyle=orthogonalEdgeStyle;rounded=0;orthogonalLoop=1;jettySize=auto;html=1;entryX=0.25;entryY=1;entryDx=0;entryDy=0;exitX=0.5;exitY=1;exitDx=0;exitDy=0;strokeColor=#000000;fontColor=#000000;fontFamily=LM Mono 12;fontSize=11;" parent="1" source="lpmMd5Od-dHpLneBfilf-54" target="lpmMd5Od-dHpLneBfilf-55" edge="1">
          <mxGeometry relative="1" as="geometry">
            <Array as="points">
              <mxPoint x="480" y="342.5" />
              <mxPoint x="460" y="342.5" />
            </Array>
          </mxGeometry>
        </mxCell>
        <mxCell id="lpmMd5Od-dHpLneBfilf-71" style="edgeStyle=orthogonalEdgeStyle;rounded=0;orthogonalLoop=1;jettySize=auto;html=1;entryX=0.5;entryY=1;entryDx=0;entryDy=0;exitX=0.5;exitY=1;exitDx=0;exitDy=0;strokeColor=#000000;fontColor=#000000;fontFamily=LM Mono 12;fontSize=11;" parent="1" source="lpmMd5Od-dHpLneBfilf-54" target="lpmMd5Od-dHpLneBfilf-55" edge="1">
          <mxGeometry relative="1" as="geometry">
            <Array as="points">
              <mxPoint x="480" y="332.5" />
              <mxPoint x="480" y="332.5" />
            </Array>
          </mxGeometry>
        </mxCell>
        <mxCell id="lpmMd5Od-dHpLneBfilf-72" style="edgeStyle=orthogonalEdgeStyle;rounded=0;orthogonalLoop=1;jettySize=auto;html=1;entryX=0.75;entryY=1;entryDx=0;entryDy=0;strokeColor=#000000;fontColor=#000000;fontFamily=LM Mono 12;fontSize=11;" parent="1" target="lpmMd5Od-dHpLneBfilf-55" edge="1">
          <mxGeometry relative="1" as="geometry">
            <mxPoint x="480" y="352.5" as="sourcePoint" />
            <mxPoint x="480" y="339.5" as="targetPoint" />
            <Array as="points">
              <mxPoint x="480" y="342.5" />
              <mxPoint x="500" y="342.5" />
            </Array>
          </mxGeometry>
        </mxCell>
        <mxCell id="lpmMd5Od-dHpLneBfilf-79" style="edgeStyle=orthogonalEdgeStyle;rounded=0;orthogonalLoop=1;jettySize=auto;html=1;exitX=0.5;exitY=0;exitDx=0;exitDy=0;entryX=0.75;entryY=1;entryDx=0;entryDy=0;strokeColor=#000000;fontColor=#000000;fontFamily=LM Mono 12;fontSize=11;" parent="1" source="lpmMd5Od-dHpLneBfilf-73" target="lpmMd5Od-dHpLneBfilf-76" edge="1">
          <mxGeometry relative="1" as="geometry">
            <Array as="points">
              <mxPoint x="480" y="232.5" />
              <mxPoint x="500" y="232.5" />
            </Array>
          </mxGeometry>
        </mxCell>
        <mxCell id="lpmMd5Od-dHpLneBfilf-73" value="Add and Normalize" style="rounded=1;whiteSpace=wrap;html=1;fillColor=#FFCCCC;strokeColor=#000000;fontColor=#000000;fontFamily=LM Mono 12;fontSize=11;" parent="1" vertex="1">
          <mxGeometry x="440" y="238.5" width="80" height="30" as="geometry" />
        </mxCell>
        <mxCell id="lpmMd5Od-dHpLneBfilf-74" value="" style="endArrow=none;html=1;rounded=0;entryX=0.5;entryY=1;entryDx=0;entryDy=0;exitX=0.5;exitY=0;exitDx=0;exitDy=0;strokeColor=#000000;fontColor=#000000;fontFamily=LM Mono 12;fontSize=11;" parent="1" source="lpmMd5Od-dHpLneBfilf-55" target="lpmMd5Od-dHpLneBfilf-73" edge="1">
          <mxGeometry width="50" height="50" relative="1" as="geometry">
            <mxPoint x="420" y="282.5" as="sourcePoint" />
            <mxPoint x="470" y="232.5" as="targetPoint" />
          </mxGeometry>
        </mxCell>
        <mxCell id="lpmMd5Od-dHpLneBfilf-75" style="edgeStyle=orthogonalEdgeStyle;rounded=0;orthogonalLoop=1;jettySize=auto;html=1;entryX=1;entryY=0.5;entryDx=0;entryDy=0;exitX=0.5;exitY=1;exitDx=0;exitDy=0;strokeColor=#000000;fontColor=#000000;fontFamily=LM Mono 12;fontSize=11;" parent="1" target="lpmMd5Od-dHpLneBfilf-73" edge="1">
          <mxGeometry relative="1" as="geometry">
            <mxPoint x="480" y="351.5" as="sourcePoint" />
            <mxPoint x="520" y="248" as="targetPoint" />
            <Array as="points">
              <mxPoint x="480" y="347.5" />
              <mxPoint x="530" y="347.5" />
              <mxPoint x="530" y="253.5" />
            </Array>
          </mxGeometry>
        </mxCell>
        <mxCell id="lpmMd5Od-dHpLneBfilf-76" value="Multi-Head Attention" style="rounded=1;whiteSpace=wrap;html=1;fillColor=#CCE5FF;strokeColor=#000000;fontColor=#000000;fontFamily=LM Mono 12;fontSize=11;" parent="1" vertex="1">
          <mxGeometry x="440" y="172.5" width="80" height="40" as="geometry" />
        </mxCell>
        <mxCell id="lpmMd5Od-dHpLneBfilf-90" style="edgeStyle=orthogonalEdgeStyle;rounded=0;orthogonalLoop=1;jettySize=auto;html=1;entryX=1;entryY=0.5;entryDx=0;entryDy=0;strokeColor=#000000;fontColor=#000000;fontFamily=LM Mono 12;fontSize=11;" parent="1" source="lpmMd5Od-dHpLneBfilf-77" target="lpmMd5Od-dHpLneBfilf-87" edge="1">
          <mxGeometry relative="1" as="geometry">
            <Array as="points">
              <mxPoint x="480" y="110" />
              <mxPoint x="530" y="110" />
              <mxPoint x="530" y="35" />
            </Array>
          </mxGeometry>
        </mxCell>
        <mxCell id="lpmMd5Od-dHpLneBfilf-91" style="edgeStyle=orthogonalEdgeStyle;rounded=0;orthogonalLoop=1;jettySize=auto;html=1;exitX=0.5;exitY=0;exitDx=0;exitDy=0;entryX=0.5;entryY=1;entryDx=0;entryDy=0;strokeColor=#000000;fontColor=#000000;fontFamily=LM Mono 12;fontSize=11;" parent="1" source="lpmMd5Od-dHpLneBfilf-77" target="lpmMd5Od-dHpLneBfilf-86" edge="1">
          <mxGeometry relative="1" as="geometry" />
        </mxCell>
        <mxCell id="lpmMd5Od-dHpLneBfilf-77" value="Add and Normalize" style="rounded=1;whiteSpace=wrap;html=1;fillColor=#FFCCCC;strokeColor=#000000;fontColor=#000000;fontFamily=LM Mono 12;fontSize=11;" parent="1" vertex="1">
          <mxGeometry x="440" y="132.5" width="80" height="30" as="geometry" />
        </mxCell>
        <mxCell id="lpmMd5Od-dHpLneBfilf-80" style="edgeStyle=orthogonalEdgeStyle;rounded=0;orthogonalLoop=1;jettySize=auto;html=1;exitX=0.5;exitY=0;exitDx=0;exitDy=0;entryX=0.363;entryY=1.005;entryDx=0;entryDy=0;entryPerimeter=0;strokeColor=#000000;fontColor=#000000;strokeWidth=2;fontFamily=LM Mono 12;fontSize=11;" parent="1" target="lpmMd5Od-dHpLneBfilf-76" edge="1">
          <mxGeometry relative="1" as="geometry">
            <mxPoint x="159.51999999999995" y="102" as="sourcePoint" />
            <mxPoint x="470" y="210" as="targetPoint" />
            <Array as="points">
              <mxPoint x="160" y="90" />
              <mxPoint x="300" y="90" />
              <mxPoint x="300" y="230" />
              <mxPoint x="469" y="230" />
            </Array>
          </mxGeometry>
        </mxCell>
        <mxCell id="lpmMd5Od-dHpLneBfilf-81" style="edgeStyle=orthogonalEdgeStyle;rounded=0;orthogonalLoop=1;jettySize=auto;html=1;entryX=0.125;entryY=0.993;entryDx=0;entryDy=0;entryPerimeter=0;strokeColor=#000000;fontColor=#000000;strokeWidth=2;fontFamily=LM Mono 12;fontSize=11;" parent="1" target="lpmMd5Od-dHpLneBfilf-76" edge="1">
          <mxGeometry relative="1" as="geometry">
            <mxPoint x="160" y="102" as="sourcePoint" />
            <mxPoint x="543" y="210" as="targetPoint" />
            <Array as="points">
              <mxPoint x="160" y="102" />
              <mxPoint x="160" y="90" />
              <mxPoint x="300" y="90" />
              <mxPoint x="300" y="230" />
              <mxPoint x="450" y="230" />
            </Array>
          </mxGeometry>
        </mxCell>
        <mxCell id="lpmMd5Od-dHpLneBfilf-83" value="" style="endArrow=none;html=1;rounded=0;exitX=0.5;exitY=0;exitDx=0;exitDy=0;entryX=0.5;entryY=1;entryDx=0;entryDy=0;strokeColor=#000000;fontColor=#000000;fontFamily=LM Mono 12;fontSize=11;" parent="1" source="lpmMd5Od-dHpLneBfilf-76" target="lpmMd5Od-dHpLneBfilf-77" edge="1">
          <mxGeometry width="50" height="50" relative="1" as="geometry">
            <mxPoint x="200" y="-17.5" as="sourcePoint" />
            <mxPoint x="250" y="-67.5" as="targetPoint" />
          </mxGeometry>
        </mxCell>
        <mxCell id="lpmMd5Od-dHpLneBfilf-86" value="Feed-Forward" style="rounded=1;whiteSpace=wrap;html=1;fillColor=#FFE6CC;strokeColor=#000000;fontColor=#000000;fontFamily=LM Mono 12;fontSize=11;" parent="1" vertex="1">
          <mxGeometry x="440" y="60" width="80" height="30" as="geometry" />
        </mxCell>
        <mxCell id="lpmMd5Od-dHpLneBfilf-87" value="Add and Normalize" style="rounded=1;whiteSpace=wrap;html=1;fillColor=#FFCCCC;strokeColor=#000000;fontColor=#000000;fontFamily=LM Mono 12;fontSize=11;" parent="1" vertex="1">
          <mxGeometry x="440" y="20" width="80" height="30" as="geometry" />
        </mxCell>
        <mxCell id="lpmMd5Od-dHpLneBfilf-92" value="" style="endArrow=none;html=1;rounded=0;exitX=0.5;exitY=1;exitDx=0;exitDy=0;strokeColor=#000000;fontColor=#000000;fontFamily=LM Mono 12;fontSize=11;" parent="1" source="lpmMd5Od-dHpLneBfilf-87" edge="1">
          <mxGeometry width="50" height="50" relative="1" as="geometry">
            <mxPoint x="430" y="110" as="sourcePoint" />
            <mxPoint x="480" y="60" as="targetPoint" />
          </mxGeometry>
        </mxCell>
        <mxCell id="lpmMd5Od-dHpLneBfilf-99" style="edgeStyle=orthogonalEdgeStyle;rounded=0;orthogonalLoop=1;jettySize=auto;html=1;entryX=0.5;entryY=1;entryDx=0;entryDy=0;strokeColor=#000000;fontColor=#000000;fontFamily=LM Mono 12;fontSize=11;" parent="1" source="lpmMd5Od-dHpLneBfilf-94" target="lpmMd5Od-dHpLneBfilf-95" edge="1">
          <mxGeometry relative="1" as="geometry" />
        </mxCell>
        <mxCell id="lpmMd5Od-dHpLneBfilf-94" value="Linear" style="rounded=1;whiteSpace=wrap;html=1;strokeColor=#000000;fillColor=#CCFFE6;fontColor=#000000;fontFamily=LM Mono 12;fontSize=11;" parent="1" vertex="1">
          <mxGeometry x="420" y="-27" width="120" height="20" as="geometry" />
        </mxCell>
        <mxCell id="lpmMd5Od-dHpLneBfilf-100" value="" style="edgeStyle=orthogonalEdgeStyle;rounded=0;orthogonalLoop=1;jettySize=auto;html=1;strokeColor=#000000;fontColor=#000000;fontFamily=LM Mono 12;fontSize=11;" parent="1" source="lpmMd5Od-dHpLneBfilf-95" target="lpmMd5Od-dHpLneBfilf-96" edge="1">
          <mxGeometry relative="1" as="geometry" />
        </mxCell>
        <mxCell id="lpmMd5Od-dHpLneBfilf-95" value="Softmax" style="rounded=1;whiteSpace=wrap;html=1;strokeColor=#000000;fillColor=#E5CCFF;fontColor=#000000;fontFamily=LM Mono 12;fontSize=11;" parent="1" vertex="1">
          <mxGeometry x="420" y="-63" width="120" height="20" as="geometry" />
        </mxCell>
        <mxCell id="lpmMd5Od-dHpLneBfilf-96" value="Output Probabilities" style="text;html=1;strokeColor=none;fillColor=none;align=center;verticalAlign=middle;whiteSpace=wrap;rounded=0;fontColor=#000000;fontFamily=LM Mono 12;fontSize=11;" parent="1" vertex="1">
          <mxGeometry x="440" y="-108" width="80" height="30" as="geometry" />
        </mxCell>
        <mxCell id="lpmMd5Od-dHpLneBfilf-102" value="" style="endArrow=classic;html=1;rounded=0;exitX=0.5;exitY=0;exitDx=0;exitDy=0;entryX=0.5;entryY=1;entryDx=0;entryDy=0;strokeColor=#000000;fontColor=#000000;fontFamily=LM Mono 12;fontSize=11;" parent="1" source="lpmMd5Od-dHpLneBfilf-54" target="lpmMd5Od-dHpLneBfilf-94" edge="1">
          <mxGeometry width="50" height="50" relative="1" as="geometry">
            <mxPoint x="430" y="10" as="sourcePoint" />
            <mxPoint x="480" y="-10" as="targetPoint" />
          </mxGeometry>
        </mxCell>
      </root>
    </mxGraphModel>
  </diagram>
</mxfile>
